<svg xmlns="http://www.w3.org/2000/svg" viewBox="0 0 505.52 348.39"><title>Fichier 1</title><g data-name="Calque 2"><path d="M2.24 233.57C65 197.16 110 133.12 125.1 62.33a249.09 249.09 0 0 0 5.32-60.87l-2.8.76c45.44 69.51 15.81 155.4-12.81 225q-7 16.93-14.35 33.69c-3.81 8.62-8.26 18.94-18.25 21.53l1.9 1.45c-6.59-56-13.07-115.36 9.3-168.87l-2.74.36c16.33 37.07 34.96 76.49 71.33 97.73 15.84 9.24 34.82 14.73 53.22 12 7.1-1 14.34-3.82 19.76-8.62a21.41 21.41 0 0 0 5.87-8.1c.75-1.91 2.17-6 .81-7.82s-3.7-1.4-5.21-.33c-3.12 2.22-3.64 6.4-3.56 9.88a130.54 130.54 0 0 0 6.67 36.85l2.2-1.69Q153 186.18 67 122.93q-24.22-17.83-48.2-36l-1.16 2.76c27 8.79 51.06 26.53 74.79 41.65q36.39 23.17 72 47.52c47.32 32.43 93.45 66.63 137.66 103.2 23 19 45.74 39.15 60.23 65.62.68 1.24 3 .76 2.8-.76a224.28 224.28 0 0 1 5.23-77.47c2.48-10 6.1-21.36 1.82-31.4-3.17-7.42-10.23-13.36-18.62-12.36-1.86.23-2 3.08 0 3l67.78-2.86c1.62-.07 2.12-2.58.4-2.95L348 207.08a1.51 1.51 0 0 0-1.46 2.51c22.88 24.38 45.95 48.86 72.3 69.56a267.09 267.09 0 0 0 40 26.38c13.87 7.33 29.4 15 45.5 12.24a1.51 1.51 0 0 0 .9-2.2c-12.6-16.67-30.11-28.09-47.92-38.51-20.32-11.89-41.12-22.94-62.24-33.33-42.36-20.88-86.02-39.04-130.08-56.29-25.44-9.94-51-19.55-76.58-29.15l.36 2.74a43.31 43.31 0 0 0 17.83-19.51c.8-1.74-1.78-3.27-2.59-1.51a40.48 40.48 0 0 1-16.76 18.43 1.52 1.52 0 0 0 .36 2.74c87.45 32.84 175.38 65.88 256.9 112 21.09 11.92 43.26 24.25 58.13 43.93l.9-2.2c-17.15 3-34.63-7-49.05-15.15a278.36 278.36 0 0 1-38.79-26.9c-24.2-19.8-45.71-42.61-67.07-65.37l-1.46 2.51 73.69 15.84.4-2.95-67.72 2.8v3c12-1.48 18 11.37 17.51 21.52-.5 11.24-4.83 22.32-6.79 33.38a226.7 226.7 0 0 0-2.15 63.3l2.8-.76c-12.66-23.13-31.65-41.63-51.56-58.57-21.68-18.45-44.1-36.06-66.77-53.26-46.82-35.51-95.29-68.8-144.74-100.53q-20.47-13.08-41.15-25.88c-13.45-8.29-27.17-16.2-42.27-21.08-1.75-.57-2.41 1.79-1.16 2.74q85.11 64.37 173.18 124.71 24.81 17 49.85 33.65a1.51 1.51 0 0 0 2.2-1.69 134.85 134.85 0 0 1-6-27.71c-.4-3.94-1.5-9.25-.06-13 .77-2 3.12-4.11 2.35-.52a15.57 15.57 0 0 1-2.15 5.13c-8.36 13.07-28 13.92-41.6 11.87-33.3-5-59.12-29.76-76.3-57.27-10.06-16.11-17.88-33.48-25.52-50.83-.59-1.34-2.31-.67-2.74.36-22.47 53.75-16 113.38-9.41 169.67a1.53 1.53 0 0 0 1.9 1.45c7.21-1.87 12-7.34 15.56-13.62 5-8.86 8.63-18.7 12.6-28.06 8.58-20.21 16.91-40.57 24.14-61.3 13.52-38.76 22.69-80 16.92-121.15-3-21.5-10.12-42.3-22-60.52a1.51 1.51 0 0 0-2.8.76c2.61 71.49-27.04 142.61-78.06 192.53a245.88 245.88 0 0 1-48.6 37 1.5 1.5 0 0 0 1.51 2.59z" data-name="Calque 1"/></g></svg>